<svg xmlns="http://www.w3.org/2000/svg" viewBox="0 0 512 390" width="512" height="390">
  <defs>
    <radialGradient id="globe" cx="50%" cy="42%" r="50%" fx="56%" fy="32%">
      <stop offset="0%" stop-color="#64d2ff"/>
      <stop offset="18%" stop-color="#42b4f5"/>
      <stop offset="38%" stop-color="#2196f3"/>
      <stop offset="58%" stop-color="#1976d2"/>
      <stop offset="78%" stop-color="#1565c0"/>
      <stop offset="100%" stop-color="#0d47a1"/>
    </radialGradient>
    <radialGradient id="gloss" cx="58%" cy="28%" r="38%">
      <stop offset="0%" stop-color="rgba(255,255,255,0.55)"/>
      <stop offset="45%" stop-color="rgba(255,255,255,0.12)"/>
      <stop offset="100%" stop-color="rgba(255,255,255,0)"/>
    </radialGradient>
    <radialGradient id="nodeLit" cx="50%" cy="50%" r="50%">
      <stop offset="0%" stop-color="#ffffff"/>
      <stop offset="40%" stop-color="#b3e5fc"/>
      <stop offset="100%" stop-color="#4fc3f7" stop-opacity="0"/>
    </radialGradient>
    <linearGradient id="rimLight" x1="0%" y1="0%" x2="100%" y2="100%">
      <stop offset="0%" stop-color="rgba(255,255,255,0.15)"/>
      <stop offset="50%" stop-color="rgba(255,255,255,0)"/>
      <stop offset="100%" stop-color="rgba(0,0,0,0.05)"/>
    </linearGradient>
    <clipPath id="gc">
      <circle cx="256" cy="190" r="185"/>
    </clipPath>
    <filter id="softGlow" x="-20%" y="-20%" width="140%" height="140%">
      <feGaussianBlur stdDeviation="2" result="blur"/>
      <feMerge>
        <feMergeNode in="blur"/>
        <feMergeNode in="SourceGraphic"/>
      </feMerge>
    </filter>
  </defs>

  <ellipse cx="256" cy="382" rx="130" ry="12" fill="rgba(0,0,0,0.25)"/>
  <circle cx="256" cy="190" r="185" fill="url(#globe)"/>

  <g clip-path="url(#gc)" fill="none" stroke="#90caf9" stroke-width="1" opacity="0.3">
    <ellipse cx="256" cy="190" rx="185" ry="25"/>
    <ellipse cx="256" cy="145" rx="175" ry="23"/>
    <ellipse cx="256" cy="235" rx="175" ry="23"/>
    <ellipse cx="256" cy="105" rx="150" ry="18"/>
    <ellipse cx="256" cy="275" rx="150" ry="18"/>
    <ellipse cx="256" cy="72" rx="118" ry="14"/>
    <ellipse cx="256" cy="308" rx="118" ry="14"/>
    <ellipse cx="256" cy="50" rx="80" ry="10"/>
    <ellipse cx="256" cy="330" rx="80" ry="10"/>
  </g>

  <g clip-path="url(#gc)" fill="none" stroke="#90caf9" stroke-width="1" opacity="0.3">
    <ellipse cx="256" cy="190" rx="25" ry="185"/>
    <ellipse cx="256" cy="190" rx="70" ry="185"/>
    <ellipse cx="256" cy="190" rx="118" ry="185"/>
    <ellipse cx="256" cy="190" rx="158" ry="185"/>
  </g>

  <g clip-path="url(#gc)" fill="none" stroke="#64b5f6" stroke-width="0.8" opacity="0.22">
    <line x1="78" y1="95" x2="434" y2="285"/>
    <line x1="85" y1="285" x2="427" y2="95"/>
    <line x1="73" y1="165" x2="439" y2="215"/>
    <line x1="128" y1="45" x2="384" y2="335"/>
    <line x1="170" y1="30" x2="342" y2="350"/>
    <line x1="103" y1="215" x2="409" y2="165"/>
  </g>

  <g clip-path="url(#gc)" fill="none" stroke="rgba(144,202,249,0.55)" stroke-width="0.7" opacity="0.5">
    <line x1="178" y1="122" x2="256" y2="145"/>
    <line x1="256" y1="145" x2="332" y2="105"/>
    <line x1="163" y1="190" x2="256" y2="145"/>
    <line x1="256" y1="145" x2="357" y2="172"/>
    <line x1="357" y1="172" x2="402" y2="125"/>
    <line x1="163" y1="190" x2="183" y2="262"/>
    <line x1="183" y1="262" x2="256" y2="312"/>
    <line x1="302" y1="242" x2="357" y2="172"/>
    <line x1="302" y1="242" x2="332" y2="272"/>
    <line x1="178" y1="122" x2="128" y2="157"/>
    <line x1="332" y1="105" x2="402" y2="125"/>
    <line x1="183" y1="262" x2="148" y2="222"/>
    <line x1="332" y1="272" x2="372" y2="222"/>
    <line x1="212" y1="82" x2="178" y2="122"/>
    <line x1="212" y1="82" x2="332" y2="105"/>
    <line x1="292" y1="282" x2="302" y2="242"/>
    <line x1="148" y1="222" x2="128" y2="157"/>
    <line x1="372" y1="222" x2="357" y2="172"/>
    <line x1="256" y1="52" x2="212" y2="82"/>
    <line x1="256" y1="52" x2="332" y2="105"/>
    <line x1="256" y1="328" x2="292" y2="282"/>
    <line x1="256" y1="328" x2="183" y2="262"/>
  </g>

  <g clip-path="url(#gc)" filter="url(#softGlow)">
    <circle cx="256" cy="145" r="5.5" fill="url(#nodeLit)"/>
    <circle cx="178" cy="122" r="5" fill="url(#nodeLit)"/>
    <circle cx="332" cy="105" r="5" fill="url(#nodeLit)"/>
    <circle cx="163" cy="190" r="4.5" fill="url(#nodeLit)"/>
    <circle cx="357" cy="172" r="5.5" fill="url(#nodeLit)"/>
    <circle cx="402" cy="125" r="4" fill="url(#nodeLit)"/>
    <circle cx="128" cy="157" r="3.5" fill="url(#nodeLit)"/>
    <circle cx="302" cy="242" r="5" fill="url(#nodeLit)"/>
    <circle cx="183" cy="262" r="4.5" fill="url(#nodeLit)"/>
    <circle cx="372" cy="222" r="4" fill="url(#nodeLit)"/>
    <circle cx="148" cy="222" r="4" fill="url(#nodeLit)"/>
    <circle cx="212" cy="82" r="4" fill="url(#nodeLit)"/>
    <circle cx="292" cy="282" r="3.5" fill="url(#nodeLit)"/>
    <circle cx="332" cy="272" r="3.5" fill="url(#nodeLit)"/>
    <circle cx="256" cy="312" r="3" fill="url(#nodeLit)"/>
    <circle cx="108" cy="132" r="3" fill="url(#nodeLit)"/>
    <circle cx="412" cy="192" r="3" fill="url(#nodeLit)"/>
    <circle cx="198" cy="292" r="3" fill="url(#nodeLit)"/>
    <circle cx="256" cy="52" r="3.5" fill="url(#nodeLit)"/>
  </g>

  <circle cx="256" cy="190" r="185" fill="url(#gloss)"/>
  <ellipse cx="312" cy="120" rx="42" ry="28" fill="rgba(255,255,255,0.3)" transform="rotate(-18 312 120)"/>
  <ellipse cx="322" cy="108" rx="20" ry="13" fill="rgba(255,255,255,0.2)" transform="rotate(-18 322 108)"/>
  <circle cx="256" cy="190" r="185" fill="none" stroke="url(#rimLight)" stroke-width="1.5"/>
</svg>
