<svg xmlns="http://www.w3.org/2000/svg" viewBox="0 0 780 320" width="780" height="320">
  <defs>
    <radialGradient id="globe" cx="50%" cy="42%" r="50%" fx="56%" fy="32%">
      <stop offset="0%" stop-color="#64d2ff"/>
      <stop offset="18%" stop-color="#42b4f5"/>
      <stop offset="38%" stop-color="#2196f3"/>
      <stop offset="58%" stop-color="#1976d2"/>
      <stop offset="78%" stop-color="#1565c0"/>
      <stop offset="100%" stop-color="#0d47a1"/>
    </radialGradient>
    <radialGradient id="gloss" cx="58%" cy="28%" r="38%">
      <stop offset="0%" stop-color="rgba(255,255,255,0.55)"/>
      <stop offset="45%" stop-color="rgba(255,255,255,0.12)"/>
      <stop offset="100%" stop-color="rgba(255,255,255,0)"/>
    </radialGradient>
    <radialGradient id="nodeLit" cx="50%" cy="50%" r="50%">
      <stop offset="0%" stop-color="#ffffff"/>
      <stop offset="40%" stop-color="#b3e5fc"/>
      <stop offset="100%" stop-color="#4fc3f7" stop-opacity="0"/>
    </radialGradient>
    <linearGradient id="rimLight" x1="0%" y1="0%" x2="100%" y2="100%">
      <stop offset="0%" stop-color="rgba(255,255,255,0.15)"/>
      <stop offset="50%" stop-color="rgba(255,255,255,0)"/>
      <stop offset="100%" stop-color="rgba(0,0,0,0.05)"/>
    </linearGradient>
    <clipPath id="gc">
      <circle cx="130" cy="150" r="120"/>
    </clipPath>
    <filter id="softGlow" x="-20%" y="-20%" width="140%" height="140%">
      <feGaussianBlur stdDeviation="2" result="blur"/>
      <feMerge>
        <feMergeNode in="blur"/>
        <feMergeNode in="SourceGraphic"/>
      </feMerge>
    </filter>
  </defs>

  <ellipse cx="130" cy="278" rx="80" ry="8" fill="rgba(0,0,0,0.25)"/>
  <circle cx="130" cy="150" r="120" fill="url(#globe)"/>

  <g clip-path="url(#gc)" fill="none" stroke="#90caf9" stroke-width="0.8" opacity="0.3">
    <ellipse cx="130" cy="150" rx="120" ry="16"/>
    <ellipse cx="130" cy="120" rx="113" ry="15"/>
    <ellipse cx="130" cy="180" rx="113" ry="15"/>
    <ellipse cx="130" cy="93" rx="98" ry="12"/>
    <ellipse cx="130" cy="207" rx="98" ry="12"/>
    <ellipse cx="130" cy="72" rx="76" ry="10"/>
    <ellipse cx="130" cy="228" rx="76" ry="10"/>
    <ellipse cx="130" cy="57" rx="50" ry="7"/>
    <ellipse cx="130" cy="243" rx="50" ry="7"/>
  </g>

  <g clip-path="url(#gc)" fill="none" stroke="#90caf9" stroke-width="0.8" opacity="0.3">
    <ellipse cx="130" cy="150" rx="16" ry="120"/>
    <ellipse cx="130" cy="150" rx="45" ry="120"/>
    <ellipse cx="130" cy="150" rx="78" ry="120"/>
    <ellipse cx="130" cy="150" rx="105" ry="120"/>
  </g>

  <g clip-path="url(#gc)" fill="none" stroke="#64b5f6" stroke-width="0.6" opacity="0.22">
    <line x1="22" y1="80" x2="238" y2="220"/>
    <line x1="28" y1="220" x2="232" y2="80"/>
    <line x1="18" y1="135" x2="242" y2="165"/>
    <line x1="65" y1="42" x2="195" y2="258"/>
    <line x1="95" y1="30" x2="165" y2="270"/>
  </g>

  <g clip-path="url(#gc)" fill="none" stroke="rgba(144,202,249,0.55)" stroke-width="0.5" opacity="0.5">
    <line x1="90" y1="105" x2="130" y2="120"/>
    <line x1="130" y1="120" x2="172" y2="93"/>
    <line x1="82" y1="150" x2="130" y2="120"/>
    <line x1="130" y1="120" x2="182" y2="140"/>
    <line x1="182" y1="140" x2="212" y2="105"/>
    <line x1="82" y1="150" x2="95" y2="205"/>
    <line x1="95" y1="205" x2="130" y2="240"/>
    <line x1="155" y1="190" x2="182" y2="140"/>
    <line x1="155" y1="190" x2="172" y2="215"/>
    <line x1="90" y1="105" x2="60" y2="125"/>
    <line x1="172" y1="93" x2="212" y2="105"/>
    <line x1="95" y1="205" x2="70" y2="180"/>
    <line x1="172" y1="215" x2="192" y2="180"/>
    <line x1="108" y1="72" x2="90" y2="105"/>
    <line x1="108" y1="72" x2="172" y2="93"/>
    <line x1="148" y1="225" x2="155" y2="190"/>
    <line x1="70" y1="180" x2="60" y2="125"/>
    <line x1="192" y1="180" x2="182" y2="140"/>
    <line x1="130" y1="42" x2="108" y2="72"/>
    <line x1="130" y1="42" x2="172" y2="93"/>
    <line x1="130" y1="258" x2="148" y2="225"/>
    <line x1="130" y1="258" x2="95" y2="205"/>
  </g>

  <g clip-path="url(#gc)" filter="url(#softGlow)">
    <circle cx="130" cy="120" r="4" fill="url(#nodeLit)"/>
    <circle cx="90" cy="105" r="3.5" fill="url(#nodeLit)"/>
    <circle cx="172" cy="93" r="3.5" fill="url(#nodeLit)"/>
    <circle cx="82" cy="150" r="3" fill="url(#nodeLit)"/>
    <circle cx="182" cy="140" r="4" fill="url(#nodeLit)"/>
    <circle cx="212" cy="105" r="3" fill="url(#nodeLit)"/>
    <circle cx="60" cy="125" r="2.5" fill="url(#nodeLit)"/>
    <circle cx="155" cy="190" r="3.5" fill="url(#nodeLit)"/>
    <circle cx="95" cy="205" r="3" fill="url(#nodeLit)"/>
    <circle cx="192" cy="180" r="3" fill="url(#nodeLit)"/>
    <circle cx="70" cy="180" r="3" fill="url(#nodeLit)"/>
    <circle cx="108" cy="72" r="3" fill="url(#nodeLit)"/>
    <circle cx="148" cy="225" r="2.5" fill="url(#nodeLit)"/>
    <circle cx="172" cy="215" r="2.5" fill="url(#nodeLit)"/>
    <circle cx="130" cy="240" r="2" fill="url(#nodeLit)"/>
    <circle cx="48" cy="110" r="2" fill="url(#nodeLit)"/>
    <circle cx="218" cy="155" r="2" fill="url(#nodeLit)"/>
    <circle cx="102" cy="235" r="2" fill="url(#nodeLit)"/>
    <circle cx="130" cy="42" r="2.5" fill="url(#nodeLit)"/>
  </g>

  <circle cx="130" cy="150" r="120" fill="url(#gloss)"/>
  <ellipse cx="165" cy="100" rx="28" ry="19" fill="rgba(255,255,255,0.3)" transform="rotate(-18 165 100)"/>
  <ellipse cx="172" cy="92" rx="13" ry="9" fill="rgba(255,255,255,0.2)" transform="rotate(-18 172 92)"/>
  <circle cx="130" cy="150" r="120" fill="none" stroke="url(#rimLight)" stroke-width="1.5"/>

  <!-- ISINET - bright for dark bg -->
  <text x="290" y="160" text-anchor="start" font-family="'Segoe UI','Helvetica Neue',Arial,sans-serif" font-size="90" font-weight="700" letter-spacing="10" fill="#42a5f5">ISINET</text>

  <!-- Soluciones Informáticas -->
  <text x="294" y="196" text-anchor="start" font-family="'Segoe UI','Helvetica Neue',Arial,sans-serif" font-size="28" font-weight="400" letter-spacing="2.5" fill="#90caf9">Soluciones Informáticas</text>
</svg>
